<svg width="512" height="512" xmlns="http://www.w3.org/2000/svg">
 <!-- Created with Method Draw - http://github.com/duopixel/Method-Draw/ -->

 <g>
  <title>background</title>
  <rect fill="none" id="canvas_background" height="514" width="514" y="-1" x="-1"/>
 </g>
 <g>
  <title>Layer 1</title>
  <g stroke="null" id="svg_63">
   <path stroke="null" id="svg_41" fill="#465a61" d="m278.482403,188.562648l-36.859911,32.610738c-1.423177,1.132875 -3.272565,1.762433 -4.981119,1.762433c-1.849388,0 -3.70063,-0.629557 -5.123807,-1.762433c-2.703666,-2.518229 -2.703666,-6.548051 0,-8.940041l36.859911,-32.610738c2.705519,-2.39199 7.258573,-2.39199 10.106779,0c2.701813,2.518229 2.701813,6.548051 -0.001853,8.940041zm0,0"/>
   <path stroke="null" id="svg_42" fill="#3b4a51" d="m278.482403,188.562648l-23.482419,20.775389l0,-17.880081l13.377492,-11.835348c2.703666,-2.39199 7.258573,-2.39199 10.104926,0c2.703666,2.518229 2.703666,6.548051 0,8.940041zm0,0"/>
   <path stroke="null" id="svg_43" fill="#465a61" d="m213.798273,226.244273c-1.069236,0 -2.153297,-0.214771 -3.176205,-0.663986l-31.463698,-13.919117c-3.517174,-1.555859 -4.942204,-5.336481 -3.183617,-8.44656c1.765999,-3.10516 6.039236,-4.372472 9.548998,-2.816613l31.463698,13.919117c3.517174,1.555859 4.942204,5.336481 3.183617,8.44656c-1.250839,2.208369 -3.759929,3.480599 -6.372793,3.480599zm0,0"/>
   <path stroke="null" id="svg_44" fill="#3b4a51" d="m294.852643,173.954953c-2.168121,0 -4.301033,-0.865641 -5.698266,-2.519868c-2.362696,-2.778905 -1.723378,-6.726754 1.42503,-8.810523l34.161805,-22.660782c3.133584,-2.090326 7.588423,-1.537825 9.958532,1.259114c2.362696,2.778905 1.723378,6.726754 -1.42503,8.810523l-34.161805,22.660782c-1.278635,0.849246 -2.77223,1.260754 -4.260265,1.260754zm0,0"/>
   <path stroke="null" id="svg_45" fill="#697c86" d="m169.609372,181.511279c-11.81348,0 -21.347653,8.435083 -21.347653,18.886717c0,10.449995 9.534173,18.886717 21.347653,18.886717s21.347653,-8.436723 21.347653,-18.886717c0,-10.451634 -9.534173,-18.886717 -21.347653,-18.886717zm0,0"/>
   <path stroke="null" id="svg_46" fill="#c6e2e7" d="m226.536447,206.693569c-11.81348,0 -21.347653,8.435083 -21.347653,18.886717c0,10.449995 9.534173,18.886717 21.347653,18.886717s21.347653,-8.436723 21.347653,-18.886717c0,-10.451634 -9.534173,-18.886717 -21.347653,-18.886717zm0,0"/>
   <path stroke="null" id="svg_47" fill="#fdbf00" d="m283.463522,156.32899c-11.81348,0 -21.347653,8.435083 -21.347653,18.886717c0,10.449995 9.534173,18.886717 21.347653,18.886717s21.347653,-8.436723 21.347653,-18.886717c0,-10.451634 -9.534173,-18.886717 -21.347653,-18.886717zm0,0"/>
   <path stroke="null" id="svg_48" fill="#e63950" d="m340.390597,118.555555c-11.81348,0 -21.347653,8.435083 -21.347653,18.886717c0,10.449995 9.534173,18.886717 21.347653,18.886717s21.347653,-8.436723 21.347653,-18.886717c0,-10.451634 -9.534173,-18.886717 -21.347653,-18.886717zm0,0"/>
   <path stroke="null" id="svg_49" fill="#e63950" d="m361.738251,187.806852l0,136.571296l-42.695306,0l0,-136.571296c0,-3.526504 3.129877,-6.295572 7.115884,-6.295572l28.463538,0c3.986007,0 7.115884,2.769068 7.115884,6.295572zm0,0"/>
   <path stroke="null" id="svg_50" fill="#fdbf00" d="m304.811175,225.580287l0,98.797862l-42.695306,0l0,-98.797862c0,-3.526504 3.129877,-6.295572 7.115884,-6.295572l28.463538,0c3.986007,0 7.115884,2.769068 7.115884,6.295572zm0,0"/>
   <path stroke="null" id="svg_51" fill="#c6e2e7" d="m247.8841,275.944866l0,48.433282l-42.695306,0l0,-48.433282c0,-3.526504 3.129877,-6.295572 7.115884,-6.295572l28.463538,0c3.986007,0 7.115884,2.769068 7.115884,6.295572zm0,0"/>
   <path stroke="null" id="svg_52" fill="#697c86" d="m190.957025,250.762577l0,73.615572l-42.695306,0l0,-73.615572c0,-3.526504 3.129877,-6.295572 7.115884,-6.295572l28.463538,0c3.986007,0 7.115884,2.769068 7.115884,6.295572zm0,0"/>
   <path stroke="null" id="svg_53" fill="#cc2e43" d="m340.390597,156.32899l0,-37.773435c11.81348,0 21.347653,8.435083 21.347653,18.886717c0,10.449995 -9.534173,18.886717 -21.347653,18.886717zm0,0"/>
   <path stroke="null" id="svg_54" fill="#cc2e43" d="m361.738251,187.806852l0,136.571296l-21.347653,0l0,-142.866869l14.231769,0c3.986007,0 7.115884,2.769068 7.115884,6.295572zm0,0"/>
   <path stroke="null" id="svg_55" fill="#ff9f00" d="m283.463522,194.102424l0,-37.773435c11.81348,0 21.347653,8.435083 21.347653,18.886717c0,10.449995 -9.534173,18.886717 -21.347653,18.886717zm0,0"/>
   <path stroke="null" id="svg_56" fill="#ff9f00" d="m304.811175,225.580287l0,98.797862l-21.347653,0l0,-105.093434l14.231769,0c3.986007,0 7.115884,2.769068 7.115884,6.295572zm0,0"/>
   <path stroke="null" id="svg_57" fill="#a8d3d8" d="m226.536447,244.467004l0,-37.773435c11.81348,0 21.347653,8.435083 21.347653,18.886717c0,10.449995 -9.534173,18.886717 -21.347653,18.886717zm0,0"/>
   <path stroke="null" id="svg_58" fill="#a8d3d8" d="m247.8841,275.944866l0,48.433282l-21.347653,0l0,-54.728854l14.231769,0c3.986007,0 7.115884,2.769068 7.115884,6.295572zm0,0"/>
   <path stroke="null" id="svg_59" fill="#596c76" d="m169.609372,219.284714l0,-37.773435c11.81348,0 21.347653,8.435083 21.347653,18.886717c0,10.449995 -9.534173,18.886717 -21.347653,18.886717zm0,0"/>
   <path stroke="null" id="svg_60" fill="#596c76" d="m190.957025,250.762577l0,73.615572l-21.347653,0l0,-79.911144l14.231769,0c3.986007,0 7.115884,2.769068 7.115884,6.295572zm0,0"/>
   <path stroke="null" id="svg_61" fill="#465a61" d="m376.444412,327.148856c0,3.524865 -3.129877,6.295572 -7.115884,6.295572l-228.657086,0c-3.986007,0 -7.115884,-2.770707 -7.115884,-6.295572c0,-3.526504 3.129877,-6.295572 7.115884,-6.295572l228.657086,0c3.986007,0 7.115884,2.769068 7.115884,6.295572zm0,0"/>
   <path stroke="null" id="svg_62" fill="#3b4a51" d="m376.444412,327.148856c0,3.524865 -3.129877,6.295572 -7.115884,6.295572l-114.328543,0l0,-12.591145l114.328543,0c3.986007,0 7.115884,2.769068 7.115884,6.295572zm0,0"/>
  </g>
  <g stroke="null" id="svg_100">
   <g stroke="null" transform="matrix(0.11870690540512108,0,0,0.12065054063757835,-6.171634214493679,-57.784864768814316) " id="svg_68">
    <g stroke="null" id="svg_69">
     <g stroke="null" id="svg_70">
      <g stroke="null" id="svg_71">
       <g stroke="null" id="svg_72">
        <path stroke="null" id="svg_73" fill="#ffda45" d="m2043.574993,2943.239177l385.635,0l0,115.624l-385.635,0l0,-115.624z"/>
       </g>
       <path stroke="null" id="svg_74" fill="#fac800" d="m2386.209993,2943.239177l43,0l0,115.624l-43,0l0,-115.624z"/>
       <path stroke="null" id="svg_75" fill="#fff5f5" d="m2264.712993,2943.239177l122,0l0,115.624l-122,0l0,-115.624z"/>
       <g stroke="null" id="svg_76">
        <g stroke="null" id="svg_77">
         <g stroke="null" id="svg_78">
          <path stroke="null" id="svg_79" fill="#f0f5fa" d="m2509.046993,3358.761177l-382.667,0c-31.296,0 -56.667,-25.371 -56.667,-56.667c0,-31.296 25.371,-56.667 56.667,-56.667l382.667,0l0,113.334z"/>
          <path stroke="null" id="svg_80" fill="#e4ecf2" d="m2469.046993,3245.428177l40,0l0,113.333l-40,0l0,-113.333z"/>
         </g>
         <g stroke="null" id="svg_81">
          <path stroke="null" id="svg_82" fill="#f0f5fa" d="m2444.906993,3245.428177l-372.353,0c-20.254,0 -36.674,-16.419 -36.674,-36.674c0,-20.254 16.419,-36.674 36.674,-36.674l372.354,0l0,73.348l-0.001,0z"/>
          <path stroke="null" id="svg_83" fill="#e4ecf2" d="m2404.906993,3172.080177l40,0l0,73.348l-40,0l0,-73.348z"/>
         </g>
         <g stroke="null" id="svg_84">
          <path stroke="null" id="svg_85" fill="#f0f5fa" d="m2159.924993,2861.761177l298.87,0c22.5,0 40.739,18.24 40.739,40.739c0,22.5 -18.24,40.739 -40.739,40.739l-298.87,0l0,-81.478z"/>
          <path stroke="null" id="svg_86" fill="#e4ecf2" d="m2458.794993,2861.761177l-40,0c22.5,0 40.739,18.24 40.739,40.739c0,22.5 -18.24,40.739 -40.739,40.739l40,0c22.5,0 40.739,-18.24 40.739,-40.739c0,-22.499 -18.239,-40.739 -40.739,-40.739z"/>
         </g>
         <g stroke="null" id="svg_87">
          <g stroke="null" id="svg_88">
           <path stroke="null" id="svg_89" fill="#6e9eff" d="m2086.977993,3058.864177l445.902,0l0,113.216l-445.902,0l0,-113.216z"/>
          </g>
          <path stroke="null" id="svg_90" fill="#bf6930" d="m2396.712993,3058.864177l136.167,0l0,113.216l-136.167,0l0,-113.216z"/>
          <path stroke="null" id="svg_91" fill="#ad5f2c" d="m2492.879993,3058.864177l40,0l0,113.216l-40,0l0,-113.216z"/>
          <path stroke="null" id="svg_92" fill="#fff5f5" d="m2240.379993,3130.472177l-102.009,0c-8.284,0 -15,-6.716 -15,-15c0,-8.284 6.716,-15 15,-15l102.009,0c8.284,0 15,6.716 15,15c0,8.284 -6.716,15 -15,15z"/>
         </g>
        </g>
       </g>
      </g>
     </g>
    </g>
    <g stroke="null" id="svg_93" fill="#060606">
     <path stroke="null" id="svg_94" d="m2540.341993,3058.115177c-0.314,-3.737 -3.711,-6.813 -7.462,-6.751l-96.17,0l0,-100.624l22.085,0c26.599,0 48.239,-21.64 48.239,-48.239s-21.64,-48.24 -48.239,-48.24l-324.357,0c-9.697,0 -9.697,15 0,15l17.987,0l0,66.479l-108.85,0c-4.142,0 -7.5,3.358 -7.5,7.5l0,26.953c0,9.697 15,9.697 15,0l0,-19.453l206.138,0l0,100.624l-206.138,0l0,-42.977c0,-9.697 -15,-9.697 -15,0l0,50.477c0,4.142 3.358,7.5 7.5,7.5l35.902,0l0,98.216l-6.924,0c-24.357,0 -44.174,19.816 -44.174,44.174s19.816,44.174 44.174,44.174l12.182,0c-41.111,36.161 -21.441,105.003 32.595,112.683c4.544,0.635 9.487,1.15 14.05,1.15c0.054,0 0.217,-0.002 0.163,-0.002c-0.163,0 252.562,-0.371 276.09,-0.498c11.508,0.238 11.409,-15.091 -0.081,-15l-281.172,0c-53.232,0 -66.152,-78.185 -16.121,-95.605c8.012,-1.998 11.411,-2.645 16.121,-2.645c0,0 354.674,0.053 375.167,0.017l0,22.677l-301.41,0c-9.697,0 -9.697,15 0,15l301.409,0l0,22.778l-219.389,0c-9.697,0 -9.697,15 0,15l219.389,0l0,22.778l-52.154,0c-9.697,0 -9.697,15 0,15l79.654,0c9.697,0 9.697,-15 0,-15l-12.5,0l0,-98.276c4.186,-0.017 8.373,-0.032 12.546,-0.058c9.696,-0.059 9.608,-15.133 -0.092,-15c-6.28,0.039 -76.593,0 -76.593,0l0,-58.348l80.473,0c4.142,0 7.5,-3.358 7.5,-7.5l0,-113.215c0,-0.252 -0.013,-0.501 -0.038,-0.749zm-118.632,-6.751l-24.997,0l-2.5,0l0,-100.624l27.497,0l0,100.624zm-254.285,-140.532l163.427,0c9.697,0 9.697,-15 0,-15l-163.427,0l0,-26.571l291.37,0c18.328,0 33.239,14.911 33.239,33.239s-14.911,33.239 -33.239,33.239l-291.37,0l0,-24.907zm104.788,39.908l107,0l0,100.624l-107,0l0,-100.624zm-177.735,115.624l294.736,0l0,98.216l-294.736,0l0,-98.216zm342.929,136.448l-97.815,0c-9.697,0 -9.697,15 0,15l97.815,0l0,20.104c-17.414,-0.08 -364.854,0.011 -364.854,0.011c-16.086,0 -29.174,-13.087 -29.174,-29.174s13.087,-29.174 29.174,-29.174l364.854,0l0,23.233zm87.973,-38.232l-121.167,0l0,-98.216l121.167,0l0,98.216z"/>
     <path stroke="null" id="svg_95" d="m2240.379993,3092.972177l-102.009,0c-12.406,0 -22.5,10.093 -22.5,22.5s10.093,22.5 22.5,22.5l102.009,0c12.407,0 22.5,-10.093 22.5,-22.5s-10.093,-22.5 -22.5,-22.5zm0,30l-102.009,0c-4.135,0 -7.5,-3.364 -7.5,-7.5s3.364,-7.5 7.5,-7.5l102.009,0c4.136,0 7.5,3.364 7.5,7.5s-3.364,7.5 -7.5,7.5z"/>
     <path stroke="null" id="svg_96" d="m2440.712993,3122.972177l48.833,0c9.697,0 9.697,-15 0,-15l-48.833,0c-9.697,0 -9.697,15 0,15z"/>
     <path stroke="null" id="svg_97" d="m2353.046993,2980.886177c-4.142,0 -7.5,3.358 -7.5,7.5l0,26.163c0,4.142 3.358,7.5 7.5,7.5s7.5,-3.358 7.5,-7.5l0,-26.163c0,-4.142 -3.358,-7.5 -7.5,-7.5z"/>
     <path stroke="null" id="svg_98" d="m2325.712993,2980.886177c-4.142,0 -7.5,3.358 -7.5,7.5l0,26.163c0,4.142 3.358,7.5 7.5,7.5s7.5,-3.358 7.5,-7.5l0,-26.163c0,-4.142 -3.357,-7.5 -7.5,-7.5z"/>
     <path stroke="null" id="svg_99" d="m2298.379993,2980.886177c-4.142,0 -7.5,3.358 -7.5,7.5l0,26.163c0,4.142 3.358,7.5 7.5,7.5s7.5,-3.358 7.5,-7.5l0,-26.163c0,-4.142 -3.358,-7.5 -7.5,-7.5z"/>
    </g>
   </g>
  </g>
  <g stroke="null" id="svg_37">
   <path stroke="null" id="svg_5" fill="#D29B6E" d="m307.376749,297.04391l0,10.917432c0,1.660381 -1.016652,3.126691 -2.506979,3.615185l-15.561752,5.100017c-2.979877,0.976987 -5.01344,3.909331 -5.01344,7.230369l0,27.509075c0,5.222486 3.974726,9.456098 8.877858,9.456098l4.438799,0l46.608171,0l0,-63.828176l-36.842657,0z"/>
   <path stroke="null" id="svg_6" fill="#59D8FF" d="m319.80575,325.411927c-8.593133,0 -16.169096,-4.804488 -20.523023,-12.004171l-9.974451,3.269065c-2.979877,0.976711 -5.01344,3.909055 -5.01344,7.230093l0,27.509075c0,5.222486 3.974726,9.456098 8.877858,9.456098l4.438799,0l46.608171,0l0,-61.463945c-0.00026,14.302054 -10.98643,26.003785 -24.413915,26.003785z"/>
   <g stroke="null" transform="matrix(0.2595485471085497,0,0,0.27645367044927627,-453.62473901113844,-631.6253820159473) " id="svg_7">
    <path stroke="null" id="svg_8" fill="#00C3F0" d="m3073.968805,3367.774048c0,51.734 -42.328,94.063 -94.063,94.063c-33.108,0 -62.297,-17.379 -79.072,-43.422l-16.936,5.211c19.268,33.045 54.998,55.313 96.008,55.313c39.669,0 74.39,-20.843 94.063,-52.111l0,-59.054z"/>
    <path stroke="null" id="svg_9" fill="#00C3F0" d="m2988.457805,3547.348048l-85.512,0c-4.722,0 -8.551,-3.829 -8.551,-8.551l0,-51.307l-46.493,-46.493c-3.03,4.438 -4.814,9.745 -4.814,15.395l0,99.507c0,18.891 15.314,34.205 34.205,34.205l17.102,0l119.716,0l0,-17.102c0,-14.169 -11.485,-25.654 -25.653,-25.654z"/>
   </g>
   <path stroke="null" id="svg_10" fill="#F0C087" d="m339.780606,280.495946l-1.438937,0l-0.780462,-16.547964l-35.511173,0l-0.781241,16.547964l-1.438158,0c-1.838642,0 -3.329229,1.587673 -3.329229,3.546071l0,4.727911c0,1.958398 1.490587,3.546071 3.329229,3.546071l3.21373,0l0.360772,2.400447c0.271228,1.805519 1.147464,3.445442 2.46623,4.616223l7.126424,6.325536c0.957215,0.849542 2.163856,1.31509 3.410208,1.31509l6.79576,0c1.245833,0 2.452734,-0.465548 3.410208,-1.31509l7.126424,-6.325536c1.319026,-1.170505 2.195002,-2.810428 2.46623,-4.616223l0.360772,-2.400447l3.213471,0c1.838642,0 3.329229,-1.587673 3.329229,-3.546071l0,-4.727911c-0.00026,-1.958121 -1.491106,-3.546071 -3.329489,-3.546071z"/>
   <path stroke="null" id="svg_11" fill="#E6AF78" d="m342.134452,281.534859c-0.301336,-0.320686 -0.660032,-0.580276 -1.058179,-0.759971c-0.398407,-0.179418 -0.836525,-0.278665 -1.295926,-0.278665l-1.439197,0l0,0l-0.780462,-16.547964l-35.510913,0l-0.781241,16.547964l-1.437899,0c-1.838642,0 -3.329229,1.587673 -3.329229,3.546071l0,4.727911c0,1.958398 1.490587,3.546071 3.329229,3.546071l3.21373,0l0.360772,2.400447c0.271228,1.805795 1.147464,3.445442 2.46623,4.616223l7.126165,6.32526c0.957475,0.849819 2.163856,1.315367 3.410208,1.315367l2.805979,0l-3.049436,-9.744163c-0.528181,-1.688026 -0.797593,-3.455394 -0.797593,-5.234097l0,-12.820539c0,-1.256482 0.926588,-2.240933 2.101305,-2.356491c1.118654,-0.110305 2.213949,-0.392841 3.226188,-0.875252c2.741871,1.307902 6.114185,1.311496 8.860468,0.008017l0.617726,3.939465c0.589435,3.760599 3.644581,6.516013 7.224015,6.516013l3.93813,0c0.622657,0 1.210794,-0.150944 1.775053,-0.366301l0,-1.997654c0.00026,-0.979752 -0.372712,-1.866062 -0.975124,-2.507711z"/>
   <path stroke="null" id="svg_12" fill="#694B4B" d="m346.438805,263.475247c0,-2.619399 -1.675645,-4.802277 -3.941245,-5.454984c0.246312,-0.652984 0.390101,-1.36264 0.390101,-2.109894c0,-3.133602 -2.384732,-5.673659 -5.326715,-5.673659c-0.108491,0 -0.209456,0.027092 -0.31639,0.034004c-0.724919,-2.216329 -2.682694,-3.816443 -5.010325,-3.816443c-0.571785,0 -1.113982,0.113346 -1.626591,0.297464c-1.136823,-1.334995 -2.762375,-2.188684 -4.58778,-2.188684c-0.470821,0 -0.925031,0.066625 -1.365744,0.171954c-1.27075,-1.270581 -2.968197,-2.063174 -4.848626,-2.063174c-1.880429,0 -3.578136,0.792593 -4.848626,2.063174c-0.440713,-0.105605 -0.895183,-0.171954 -1.365744,-0.171954c-1.694333,0 -3.226708,0.72652 -4.347957,1.898131c-0.030886,-0.000553 -0.059956,-0.006911 -0.091102,-0.006911c-2.327631,0 -4.285406,1.60039 -5.010325,3.816443c-0.106934,-0.006911 -0.208158,-0.034004 -0.31639,-0.034004c-2.941983,0 -5.326715,2.540056 -5.326715,5.673659c0,0.746978 0.14379,1.456634 0.389842,2.109894c-2.26534,0.652707 -3.940985,2.835585 -3.940985,5.454984c0,1.459675 0.532075,2.776701 1.382356,3.782439c-0.850281,1.005186 -1.382356,2.322764 -1.382356,3.782439c0,2.099942 1.083875,3.907949 2.678022,4.884107c0.079162,2.537292 2.022662,4.571991 4.424265,4.571991l1.940385,0c0.867671,0 1.608422,-0.668465 1.751434,-1.580209l1.239085,-7.918186c0.133148,0.010505 0.260327,0.042574 0.395812,0.042574c1.855253,0 3.484958,-1.012373 4.438799,-2.54448c0.953841,1.532106 2.583806,2.54448 4.438799,2.54448s3.484958,-1.012373 4.438799,-2.54448c0.953841,1.532106 2.583806,2.54448 4.438799,2.54448s3.484958,-1.012373 4.438799,-2.54448c0.953841,1.532106 2.583806,2.54448 4.438799,2.54448c0.135484,0 0.262663,-0.031792 0.395812,-0.042574l1.239085,7.918186c0.142752,0.912021 0.883503,1.580209 1.751434,1.580209l2.384213,0c2.451436,0 4.438799,-2.117082 4.438799,-4.727911c0,-0.048932 -0.012199,-0.094547 -0.013497,-0.143203c1.347576,-1.023708 2.233156,-2.685747 2.233156,-4.584708c0,-1.459675 -0.532075,-2.776977 -1.382356,-3.782439c0.8508,-1.006015 1.382875,-2.32304 1.382875,-3.782716z"/>
   <path stroke="null" id="svg_13" fill="#5A4146" d="m318.505931,266.920689c-2.080801,-0.772135 -3.583068,-2.857425 -3.583068,-5.336662c0,-1.459675 0.532075,-2.776977 1.382356,-3.782439c-0.850281,-1.005186 -1.382356,-2.322764 -1.382356,-3.782439c0,-2.619399 1.675645,-4.802277 3.941245,-5.454984c-0.246312,-0.652984 -0.389842,-1.36264 -0.389842,-2.109894c0,-1.457464 0.530777,-2.772554 1.378462,-3.777463c-0.016092,0 -0.030886,-0.004976 -0.046978,-0.004976c-1.880429,0 -3.578136,0.792593 -4.848626,2.063174c-0.440713,-0.105605 -0.895183,-0.171954 -1.365744,-0.171954c-1.694333,0 -3.226708,0.72652 -4.347957,1.898131c-0.030886,-0.000553 -0.059956,-0.006911 -0.091102,-0.006911c-2.327631,0 -4.285406,1.60039 -5.010325,3.816443c-0.106934,-0.006911 -0.208158,-0.034004 -0.31639,-0.034004c-2.941983,0 -5.326715,2.540056 -5.326715,5.673659c0,0.746978 0.14379,1.456634 0.389842,2.109894c-2.265599,0.652707 -3.941245,2.835585 -3.941245,5.454984c0,1.459675 0.532075,2.776701 1.382356,3.782439c-0.850281,1.005186 -1.382356,2.322764 -1.382356,3.782439c0,2.099942 1.083875,3.907949 2.678022,4.884107c0.079162,2.537292 2.022662,4.571991 4.424265,4.571991l1.940385,0c0.867671,0 1.608422,-0.668465 1.751434,-1.580209l1.239085,-7.918186c0.133148,0.010505 0.260327,0.042574 0.395812,0.042574c1.855253,0 3.484958,-1.012373 4.438799,-2.54448c0.953841,1.532106 2.583806,2.54448 4.438799,2.54448c1.225069,0 2.329967,-0.47163 3.229043,-1.213079c-0.608122,-0.674547 -1.009644,-1.558369 -1.009644,-2.56936c0.000519,-0.115834 0.022581,-0.22448 0.032444,-0.337273z"/>
   <path stroke="null" id="svg_14" fill="#E6AF78" d="m315.366691,349.052033l6.658199,0c3.677284,0 6.658199,3.17507 6.658199,7.091866l0,4.727911l-13.316657,0l0,-11.819777l0.00026,0z"/>
   <path stroke="null" id="svg_15" fill="#00C3F0" d="m344.219405,299.408142c0,14.302054 -10.986171,26.004062 -24.413915,26.004062c-8.593133,0 -16.169096,-4.804488 -20.523023,-12.004171l-6.570471,2.153298c5.327753,10.096364 15.467796,16.94274 27.093494,16.94274c9.903853,0 18.720199,-4.978931 24.413915,-12.690882l0,-20.405045z"/>
   <path stroke="null" id="svg_16" fill="#D5DCED" d="m399.705434,344.323846l-66.583287,0c-3.677284,0 -6.658199,-3.17507 -6.658199,-7.091866l0,-42.552025c0,-3.916796 2.980915,-7.091866 6.658199,-7.091866l66.583287,0c3.677284,0 6.658199,3.17507 6.658199,7.091866l0,42.552025c0,3.916796 -2.980915,7.091866 -6.658199,7.091866z"/>
   <path stroke="null" id="svg_17" fill="#AFB9D2" d="m379.730578,360.87181l-3.925412,-31.357034c-0.294069,-2.349027 -2.175017,-4.103125 -4.400127,-4.103125l-9.982756,0c-2.224591,0 -4.106058,1.754099 -4.400127,4.103125l-3.925153,31.357034l26.633574,0z"/>
   <circle stroke="null" transform="matrix(0.2595485471085497,0,0,0.27645367044927627,-453.62473901113844,-631.6253820159473) " id="svg_18" fill="#FFFFFF" r="17.101999" cy="3410.529146" cx="3159.480833"/>
   <path stroke="null" id="svg_19" fill="#F5DCB4" d="m404.144233,370.327908l-124.288455,0c-1.225588,0 -2.2194,-1.058541 -2.2194,-2.363955l0,-4.727911c0,-1.305414 0.993811,-2.363955 2.2194,-2.363955l124.288455,0c1.225588,0 2.2194,1.058541 2.2194,2.363955l0,4.727911c0,1.305414 -0.993552,2.363955 -2.2194,2.363955z"/>
   <path stroke="null" id="svg_20" d="m399.705434,346.540175c4.818778,0 8.739,-4.175833 8.739,-9.308195l0,-42.552025c0,-5.132639 -3.920481,-9.308195 -8.739,-9.308195l-54.736972,0l0,-1.093374c0,-1.435624 -0.476791,-2.753755 -1.269192,-3.787415c0.587877,-0.76633 0.997964,-1.684156 1.173419,-2.678836c2.227186,-1.398579 3.646917,-3.960199 3.646917,-6.772286c0,-1.328083 -0.321062,-2.626033 -0.922695,-3.782439c0.601374,-1.156406 0.922695,-2.454079 0.922695,-3.782439c0,-2.800476 -1.40857,-5.339426 -3.592671,-6.738835c0.027772,-0.274242 0.041528,-0.54959 0.041528,-0.826044c0,-3.983421 -2.785994,-7.287042 -6.391643,-7.815898c-1.31643,-2.356215 -3.712842,-3.856252 -6.342588,-3.856252c-0.337673,0 -0.678719,0.027645 -1.020285,0.082936c-1.468785,-1.266711 -3.303534,-1.974156 -5.194086,-1.974156c-0.252541,0 -0.505601,0.013546 -0.762035,0.040915c-1.579093,-1.252612 -3.479767,-1.931858 -5.452077,-1.931858s-3.872983,0.679247 -5.452336,1.931858c-0.256694,-0.027092 -0.509753,-0.040915 -0.762035,-0.040915c-1.895483,0 -3.700903,0.679247 -5.167092,1.929923c-2.338792,0.248532 -4.420371,1.680838 -5.614035,3.817825c-3.605648,0.528579 -6.391643,3.832201 -6.391643,7.815622c0,0.276177 0.013756,0.551802 0.041528,0.826044c-2.183841,1.399408 -3.592671,3.938359 -3.592671,6.738835c0,1.32836 0.321062,2.626033 0.922695,3.782439c-0.601634,1.156406 -0.922695,2.454356 -0.922695,3.782439c0,2.812087 1.419731,5.373706 3.647176,6.772286c0.09785,0.555119 0.270969,1.085357 0.505081,1.579656c-1.435823,1.088398 -2.376686,2.870695 -2.376686,4.886319l0,3.782439c0,3.307492 2.526186,5.998768 5.631944,5.998768l0.924771,0l0.151317,1.006844c0.35065,2.334928 1.48306,4.454774 3.188813,5.968911l0.756844,0.671782l0,6.254764c0,0.691687 -0.417354,1.293527 -1.038194,1.49672l-15.562531,5.100294c-3.877136,1.270858 -6.482225,5.027586 -6.482225,9.348557l0,27.509075c0,2.733297 0.889213,5.248473 2.372274,7.239769l-4.730272,0c-2.371236,-0.000276 -4.3002,2.054327 -4.3002,4.580008l0,4.727911c0,2.525681 1.928965,4.580284 4.3002,4.580284l124.288455,0c2.371236,0 4.3002,-2.054604 4.3002,-4.580284l0,-4.727911c0,-2.525681 -1.928965,-4.580284 -4.3002,-4.580284l-22.592144,0l-1.516802,-12.115582l19.670146,0zm4.577658,-51.86022l0,42.552025c0,2.688512 -2.053548,4.875813 -4.577658,4.875813l-19.974856,0c-0.084094,0 -0.166111,0.006911 -0.247869,0.01714l-1.615171,-12.902646c-0.430072,-3.43549 -3.20828,-6.026414 -6.46224,-6.026414l-9.982756,0c-3.25396,0 -6.032427,2.590924 -6.462499,6.026414l-1.615171,12.902646c-0.081239,-0.010229 -0.163775,-0.01714 -0.247869,-0.01714l-19.974856,0c-2.52411,0 -4.577658,-2.187301 -4.577658,-4.875813l0,-42.552025c0,-2.688512 2.053548,-4.875813 4.577658,-4.875813l66.583287,0c2.52411,0.000276 4.577658,2.187301 4.577658,4.875813zm-57.989894,63.975803c0.003115,-0.048932 0.007008,-0.097865 0.007008,-0.147626l0,-11.967679l6.491828,0l-1.516802,12.115582l-4.982034,0l0,-0.000276zm-6.576182,-73.283998l0.365963,-2.43528c0.43137,0.273413 0.72414,0.769371 0.72414,1.341906l0,1.093374l-1.090104,0zm-41.840783,-19.597524c-0.386727,-0.457254 -0.847426,-1.227178 -0.847426,-2.298989c0,-1.54427 0.988361,-2.90774 2.403939,-3.315785c0.573602,-0.165596 1.053767,-0.584147 1.318507,-1.150877c0.265259,-0.566454 0.290175,-1.226901 0.06878,-1.814365c-0.159622,-0.422145 -0.240342,-0.854242 -0.240342,-1.283574c0,-1.879332 1.415059,-3.413373 3.170126,-3.4565c0.088506,0.012717 0.177531,0.023222 0.268114,0.029028c0.931779,0.056949 1.782579,-0.546549 2.088847,-1.483174c0.44824,-1.370657 1.639568,-2.298436 2.97832,-2.328569c0.04023,0.003041 0.08072,0.004976 0.121469,0.005529c0.562442,0.007188 1.095554,-0.217845 1.493702,-0.633908c0.780203,-0.814985 1.806977,-1.263946 2.890852,-1.263946c0.280572,0 0.578015,0.038704 0.909199,0.117769c0.67249,0.161172 1.377684,-0.043127 1.880948,-0.546272c0.943459,-0.942983 2.159444,-1.46244 3.424484,-1.46244c1.26504,0 2.481025,0.519456 3.424224,1.462716c0.503005,0.503146 1.207939,0.707721 1.880948,0.546272c0.331184,-0.079619 0.628627,-0.117769 0.909199,-0.117769c1.161999,0 2.244057,0.51918 3.04684,1.461611c0.555953,0.652707 1.422066,0.892392 2.205903,0.610963c0.340009,-0.121916 0.654841,-0.181354 0.961887,-0.181354c1.365744,0 2.589775,0.936072 3.045543,2.329122c0.306267,0.936349 1.157587,1.542335 2.088847,1.483174c0.084872,-0.005253 0.168447,-0.015205 0.267595,-0.029028c1.755067,0.04285 3.170386,1.577168 3.170386,3.4565c0,0.429333 -0.08072,0.86143 -0.240082,1.283298c-0.221654,0.587464 -0.196738,1.247912 0.068521,1.814642c0.265259,0.56673 0.745164,0.985557 1.319026,1.150877c1.415059,0.408046 2.403679,1.771515 2.403679,3.315785c0,1.071811 -0.461218,1.841734 -0.847426,2.298989c-0.71298,0.843184 -0.71298,2.123717 0,2.966901c0.386727,0.457254 0.847426,1.227178 0.847426,2.298989c0,1.454699 -0.878831,2.758455 -2.186956,3.243631c-0.901672,0.334785 -1.473976,1.280533 -1.387547,2.29346c0.00571,0.068008 0.013497,0.135462 0.022321,0.202641c-0.027512,0.672888 -0.469783,1.256482 -1.094516,1.433412c-0.066704,0.018799 -2.056663,0.066625 -2.056663,0.066625l-1.196519,-7.646709c-0.177012,-1.130972 -1.136823,-1.931305 -2.20772,-1.845605c-0.096552,0.007741 -0.191028,0.020181 -0.286022,0.034004l-0.012199,0.001659c-1.066225,-0.020181 -2.05251,-0.59714 -2.647136,-1.552564c-0.385689,-0.61898 -1.036377,-0.991363 -1.734044,-0.991363l0,0c-0.697407,0 -1.348614,0.372383 -1.734044,0.991086c-0.605527,0.972564 -1.616468,1.553117 -2.705015,1.553117c-1.088287,0 -2.099229,-0.580553 -2.705015,-1.553117c-0.385689,-0.61898 -1.036377,-0.991363 -1.734044,-0.991363l0,0c-0.697407,0 -1.348614,0.372383 -1.734044,0.991086c-0.605527,0.972564 -1.616468,1.553117 -2.705015,1.553117c-1.088287,0 -2.099229,-0.580553 -2.705015,-1.553117c-0.385689,-0.61898 -1.036377,-0.991363 -1.734044,-0.991363l0,0c-0.697407,0 -1.348614,0.372383 -1.734044,0.991086c-0.594885,0.955424 -1.58117,1.532383 -2.647136,1.552564l-0.012199,-0.001659c-0.094735,-0.013823 -0.18973,-0.026263 -0.286282,-0.034004c-1.070638,-0.087083 -2.030448,0.714909 -2.20746,1.845605l-1.196259,7.647538c0,0 -1.989699,-0.04755 -2.056403,-0.066625c-0.624993,-0.17693 -1.067523,-0.761077 -1.094516,-1.433965c0.008306,-0.067178 0.016092,-0.13408 0.021802,-0.202088c0.08643,-1.012926 -0.485875,-1.958674 -1.387547,-2.29346c-1.308125,-0.485453 -2.186956,-1.788932 -2.186956,-3.243631c0,-1.071811 0.461218,-1.841734 0.847426,-2.298989c0.713759,-0.842907 0.713759,-2.123441 0.000779,-2.966624zm2.398229,23.852699c-0.81057,0 -1.470343,-0.702469 -1.470343,-1.56611l0,-3.782439c0,-0.572259 0.292771,-1.068493 0.72414,-1.341906l1.005232,6.690455l-0.259029,0zm3.434346,-6.914659l0.28161,0c1.892628,0 3.492226,-1.443641 3.803944,-3.432172l0.963963,-6.161876c1.113982,-0.22448 2.157887,-0.718227 3.057222,-1.437559c1.263223,1.010438 2.812468,1.575509 4.438799,1.575509c1.626072,0 3.175576,-0.565348 4.438799,-1.575509c1.263223,1.010438 2.812468,1.575509 4.438799,1.575509c1.626072,0 3.175576,-0.565348 4.438799,-1.575509c0.899076,0.719332 1.94324,1.212802 3.057222,1.437559l0.963963,6.162152c0.227105,1.451382 1.142273,2.60917 2.355144,3.130561l-0.444607,2.960819l-2.380579,0c-4.818778,0 -8.739,4.175833 -8.739,9.308195l0,9.836222c-0.374529,0.155643 -0.774752,0.240238 -1.179389,0.240238l-6.796279,0c-0.757882,0 -1.495778,-0.284471 -2.077946,-0.801439l-7.126424,-6.325536c-0.932817,-0.827979 -1.551841,-1.986873 -1.743647,-3.263812l-1.750395,-11.653352zm1.773236,30.982716c2.378243,-0.779323 3.975765,-3.083564 3.975765,-5.733373l0,-2.561067l2.20772,1.95978c1.328629,1.179351 3.01258,1.828741 4.742212,1.828741l6.796279,0c0.395812,0 0.790325,-0.035939 1.179389,-0.103394l0,14.260586c-1.220916,0.212593 -2.462078,0.322345 -3.707911,0.322345c-6.941107,0 -13.486921,-3.382687 -17.796725,-9.120207l2.603272,-0.853412zm-19.106666,37.720998l0,-27.509075c0,-2.36285 1.424662,-4.417177 3.544655,-5.112181l8.73303,-2.861848c5.049517,7.621551 13.269939,12.167832 22.022435,12.167832c1.242978,0 2.482322,-0.093165 3.707911,-0.273136l0,9.404401c0,5.132639 3.920481,9.308195 8.739,9.308195l9.016457,0l0,11.967679c0,0.050038 0.003893,0.098694 0.007008,0.147626l-11.381723,0l0,-2.511858c0,-5.132639 -3.920481,-9.308195 -8.739,-9.308195l-22.194515,0c-0.076567,0 -0.138599,-0.066072 -0.138599,-0.147626l0,-14.184008c0,-1.22386 -0.93152,-2.216329 -2.080801,-2.216329c-1.149021,0 -2.080801,0.992192 -2.080801,2.216329l0,14.184008c0,2.525681 1.928965,4.580284 4.3002,4.580284l13.455256,0l0,7.387395l-20.113455,0c-3.747881,0.000276 -6.797057,-3.247778 -6.797057,-7.239492zm31.072114,7.239769l0,-7.387395l4.577658,0c2.52411,0 4.577658,2.187301 4.577658,4.875813l0,2.511858l-9.155315,0l0,-0.000276zm86.8356,4.580284l0,4.727911c0,0.081554 -0.062032,0.147626 -0.138599,0.147626l-124.288715,0c-0.076567,0 -0.138599,-0.066072 -0.138599,-0.147626l0,-4.727911c0,-0.081554 0.062032,-0.147626 0.138599,-0.147626l124.288455,0c0.076567,-0.000276 0.138858,0.066072 0.138858,0.147626zm-48.809402,-4.580284l3.611099,-28.847664c0.155729,-1.242936 1.160442,-2.179837 2.337754,-2.179837l9.982756,0c1.177053,0 2.182025,0.936901 2.337754,2.179837l3.611358,28.847664l-21.880721,0z"/>
   <path stroke="null" id="svg_21" d="m366.413921,318.172158c3.595007,0 6.5196,-3.11508 6.5196,-6.94424s-2.924593,-6.94424 -6.5196,-6.94424c-3.595007,0 -6.5196,3.11508 -6.5196,6.94424c0,3.82916 2.924593,6.94424 6.5196,6.94424zm0,-9.455821c1.300338,0 2.358258,1.126825 2.358258,2.511858c0,1.385033 -1.05792,2.511858 -2.358258,2.511858c-1.300338,0 -2.358258,-1.126825 -2.358258,-2.511858s1.05792,-2.511858 2.358258,-2.511858z"/>
   <g stroke="null" transform="matrix(0.2595485471085497,0,0,0.27645367044927627,-453.62473901113844,-631.6253820159473) " id="svg_22"/>
   <g stroke="null" transform="matrix(0.2595485471085497,0,0,0.27645367044927627,-453.62473901113844,-631.6253820159473) " id="svg_23"/>
   <g stroke="null" transform="matrix(0.2595485471085497,0,0,0.27645367044927627,-453.62473901113844,-631.6253820159473) " id="svg_24"/>
   <g stroke="null" transform="matrix(0.2595485471085497,0,0,0.27645367044927627,-453.62473901113844,-631.6253820159473) " id="svg_25"/>
   <g stroke="null" transform="matrix(0.2595485471085497,0,0,0.27645367044927627,-453.62473901113844,-631.6253820159473) " id="svg_26"/>
   <g stroke="null" transform="matrix(0.2595485471085497,0,0,0.27645367044927627,-453.62473901113844,-631.6253820159473) " id="svg_27"/>
   <g stroke="null" transform="matrix(0.2595485471085497,0,0,0.27645367044927627,-453.62473901113844,-631.6253820159473) " id="svg_28"/>
   <g stroke="null" transform="matrix(0.2595485471085497,0,0,0.27645367044927627,-453.62473901113844,-631.6253820159473) " id="svg_29"/>
   <g stroke="null" transform="matrix(0.2595485471085497,0,0,0.27645367044927627,-453.62473901113844,-631.6253820159473) " id="svg_30"/>
   <g stroke="null" transform="matrix(0.2595485471085497,0,0,0.27645367044927627,-453.62473901113844,-631.6253820159473) " id="svg_31"/>
   <g stroke="null" transform="matrix(0.2595485471085497,0,0,0.27645367044927627,-453.62473901113844,-631.6253820159473) " id="svg_32"/>
   <g stroke="null" transform="matrix(0.2595485471085497,0,0,0.27645367044927627,-453.62473901113844,-631.6253820159473) " id="svg_33"/>
   <g stroke="null" transform="matrix(0.2595485471085497,0,0,0.27645367044927627,-453.62473901113844,-631.6253820159473) " id="svg_34"/>
   <g stroke="null" transform="matrix(0.2595485471085497,0,0,0.27645367044927627,-453.62473901113844,-631.6253820159473) " id="svg_35"/>
   <g stroke="null" transform="matrix(0.2595485471085497,0,0,0.27645367044927627,-453.62473901113844,-631.6253820159473) " id="svg_36"/>
  </g>
 </g>
</svg>